<?xml version="1.0" standalone="no"?>
<!DOCTYPE svg PUBLIC "-//W3C//DTD SVG 20010904//EN"
 "http://www.w3.org/TR/2001/REC-SVG-20010904/DTD/svg10.dtd">
<svg version="1.0" xmlns="http://www.w3.org/2000/svg"
 width="512.000000pt" height="512.000000pt" viewBox="0 0 512.000000 512.000000"
 preserveAspectRatio="xMidYMid meet">

<g transform="translate(0.000000,512.000000) scale(0.100000,-0.100000)"
fill="#000000" stroke="none">
<path d="M1 3863 c1 -692 5 -1202 10 -1133 31 517 234 1030 573 1450 77 96
260 279 356 356 420 339 933 542 1450 573 69 5 -441 9 -1132 10 l-1258 1 1
-1257z"/>
<path d="M2730 5109 c517 -31 1030 -234 1450 -573 96 -77 279 -260 356 -356
339 -420 542 -933 573 -1450 5 -69 9 441 10 1133 l1 1257 -1257 -1 c-692 -1
-1202 -5 -1133 -10z"/>
<path d="M2415 4574 c-16 -2 -73 -9 -125 -15 -411 -47 -841 -261 -1154 -575
-315 -315 -516 -717 -578 -1159 -16 -116 -16 -414 0 -530 105 -740 603 -1365
1297 -1623 248 -93 434 -126 705 -126 271 0 457 33 705 126 479 178 876 538
1108 1003 85 172 160 418 189 620 16 116 16 414 0 530 -105 740 -603 1365
-1297 1623 -137 52 -270 87 -400 107 -98 15 -390 28 -450 19z m178 -355 c49
-13 105 -63 128 -114 17 -37 19 -85 19 -752 l0 -712 603 -3 c594 -3 603 -3
642 -25 75 -40 115 -105 115 -185 -1 -86 -67 -175 -147 -197 -25 -7 -284 -11
-749 -11 l-710 0 -53 26 c-34 17 -62 41 -79 67 l-27 41 0 871 0 871 27 41 c17
26 45 50 79 67 57 28 93 32 152 15z"/>
<path d="M1 1258 l-1 -1258 1258 1 c691 1 1201 5 1132 10 -517 31 -1030 234
-1450 573 -96 77 -279 260 -356 356 -339 420 -542 933 -573 1450 -5 69 -9
-441 -10 -1132z"/>
<path d="M5107 2383 c-23 -496 -232 -1024 -571 -1443 -77 -96 -260 -279 -356
-356 -420 -339 -933 -542 -1450 -573 -69 -5 441 -9 1133 -10 l1257 -1 0 1255
c0 690 -2 1255 -3 1255 -2 0 -7 -57 -10 -127z"/>
</g>
</svg>
