<?xml version="1.0" standalone="no"?>
<!DOCTYPE svg PUBLIC "-//W3C//DTD SVG 20010904//EN"
 "http://www.w3.org/TR/2001/REC-SVG-20010904/DTD/svg10.dtd">
<svg version="1.0" xmlns="http://www.w3.org/2000/svg"
 width="512.000000pt" height="512.000000pt" viewBox="0 0 512.000000 512.000000"
 preserveAspectRatio="xMidYMid meet">

<g transform="translate(0.000000,512.000000) scale(0.100000,-0.100000)"
fill="#000000" stroke="none">
<path d="M0 2560 l0 -2560 1413 0 c1227 1 1408 3 1379 15 -38 17 -52 48 -52
116 0 46 -4 56 -49 107 -141 166 -311 499 -350 692 -7 30 -32 232 -57 448 -29
255 -53 426 -69 485 -37 141 -55 261 -56 377 -2 195 49 290 154 290 152 0 277
-157 351 -438 14 -51 30 -127 36 -169 15 -95 81 -218 187 -350 68 -84 63 -206
63 1427 l0 1480 -60 0 c-173 0 -312 133 -314 301 l-1 69 -486 0 -486 0 -5 -68
c-13 -173 -130 -290 -300 -300 l-78 -5 0 -1176 0 -1176 83 -1 c97 0 158 -25
223 -89 65 -65 89 -125 89 -222 l0 -83 156 0 c114 0 159 -3 167 -13 6 -7 16
-53 22 -102 6 -50 13 -102 15 -117 l5 -28 -385 0 c-364 0 -387 1 -440 21 -65
24 -133 88 -167 156 l-23 48 -3 1580 c-3 1760 -8 1628 67 1723 43 54 121 100
189 112 26 4 -237 8 -585 9 l-633 1 0 -2560z m2206 1885 c72 -36 99 -81 99
-165 0 -58 -4 -72 -29 -104 -76 -100 -200 -112 -285 -27 -116 116 -34 319 130
321 19 0 57 -11 85 -25z m89 -519 c108 -35 196 -88 276 -167 260 -258 275
-672 33 -947 -40 -45 -42 -46 -70 -33 -136 62 -284 65 -407 6 -57 -26 -149
-110 -173 -157 -14 -27 -19 -29 -52 -23 -69 12 -201 86 -274 154 -153 141
-228 308 -228 506 0 185 60 339 181 469 107 115 216 178 363 212 93 21 252 12
351 -20z"/>
<path d="M2162 3507 c-65 -24 -103 -66 -149 -166 -67 -142 -99 -169 -142 -115
-25 32 -27 81 -6 150 23 77 22 81 -41 99 -69 20 -76 15 -100 -71 -18 -67 -20
-69 -84 -76 -23 -3 -25 -7 -25 -58 l0 -55 50 -5 c47 -5 51 -8 68 -45 24 -51
73 -104 114 -121 42 -18 127 -18 162 0 47 25 96 89 130 172 39 93 64 124 102
124 66 0 88 -96 49 -207 -11 -32 -20 -63 -20 -70 0 -11 86 -43 117 -43 16 0
41 55 57 125 l11 50 50 5 50 5 3 54 c4 63 -4 71 -65 71 -41 0 -43 1 -68 55
-52 108 -160 159 -263 122z"/>
<path d="M2970 5106 c69 -14 118 -44 169 -102 80 -91 75 -28 79 -1036 l3 -897
62 -49 c97 -76 809 -805 834 -854 51 -100 55 -246 9 -392 -14 -43 -34 -124
-46 -180 -40 -203 -125 -826 -186 -1371 -9 -82 -20 -160 -25 -173 -5 -13 -24
-29 -41 -37 -29 -12 49 -14 630 -15 l662 0 0 2560 0 2560 -1102 -1 c-878 -1
-1092 -3 -1048 -13z"/>
</g>
</svg>
