<?xml version="1.0" standalone="no"?>
<!DOCTYPE svg PUBLIC "-//W3C//DTD SVG 20010904//EN"
 "http://www.w3.org/TR/2001/REC-SVG-20010904/DTD/svg10.dtd">
<svg version="1.0" xmlns="http://www.w3.org/2000/svg"
 width="512.000000pt" height="512.000000pt" viewBox="0 0 512.000000 512.000000"
 preserveAspectRatio="xMidYMid meet">

<g transform="translate(0.000000,512.000000) scale(0.100000,-0.100000)"
fill="#000000" stroke="none">
<path d="M0 2560 l0 -2560 38 1 c20 0 30 3 22 6 -8 3 -23 12 -32 21 -17 14
-18 140 -18 2371 0 1296 4 2361 8 2367 18 28 56 34 201 34 l151 0 0 133 c0
143 8 171 53 180 12 2 -78 5 -200 6 l-223 1 0 -2560z"/>
<path d="M2961 5107 c37 -17 1308 -1254 1320 -1284 5 -13 9 -61 10 -106 l1
-82 38 113 c46 135 74 186 131 236 65 59 121 81 209 80 83 0 206 -34 293 -81
91 -50 146 -146 147 -255 0 -59 -31 -165 -303 -1030 l-303 -963 -104 -140
-105 -140 -5 -547 c-5 -508 -6 -549 -23 -565 -15 -16 -40 -18 -182 -21 l-165
-3 0 -138 c0 -144 -4 -157 -50 -174 -8 -3 270 -6 618 -6 l632 -1 0 2560 0
2560 -1092 0 c-861 -1 -1087 -3 -1067 -13z"/>
<path d="M520 2720 l0 -2250 1815 0 1815 0 0 376 c0 230 -4 374 -9 372 -6 -1
-60 -69 -121 -150 -105 -141 -112 -148 -145 -148 -57 0 -75 27 -76 113 0 39
-4 270 -9 512 l-8 440 184 581 184 582 0 291 0 291 -622 0 c-343 0 -628 4
-634 8 -32 21 -34 51 -34 641 l0 591 -1170 0 -1170 0 0 -2250z m1701 1921 c18
-22 19 -45 19 -447 0 -411 -1 -425 -20 -444 -20 -20 -33 -20 -608 -20 -578 0
-589 0 -610 20 -22 21 -22 21 -22 448 0 235 4 432 8 439 19 30 67 32 635 30
l579 -2 19 -24z m1057 -1502 c50 -17 62 -77 24 -121 -14 -17 -85 -18 -1225
-18 l-1211 0 -23 22 c-40 37 -22 111 30 121 53 10 2375 7 2405 -4z m21 -577
c45 -35 24 -117 -32 -127 -17 -3 -567 -4 -1220 -3 l-1189 3 -19 24 c-26 32
-24 67 6 96 l24 25 1204 0 c1135 0 1206 -1 1226 -18z m3 -569 c8 -10 18 -26
21 -36 7 -20 -9 -68 -26 -79 -7 -4 -558 -8 -1224 -8 -1200 0 -1213 0 -1233 20
-11 11 -20 33 -20 50 0 17 9 39 20 50 20 20 33 20 1233 20 1144 0 1215 -1
1229 -17z m-8 -563 c27 -27 30 -72 6 -103 l-21 -27 -1209 0 -1209 0 -20 26
c-33 42 -23 96 22 114 13 5 541 8 1219 7 1054 -2 1199 -4 1212 -17z m326 -570
c20 -20 27 -74 12 -97 -4 -6 -20 -17 -35 -22 -41 -16 -1187 -15 -1221 0 -48
22 -54 102 -9 128 12 7 220 10 626 11 594 0 607 0 627 -20z"/>
<path d="M1120 4200 l0 -320 485 0 485 0 0 320 0 320 -485 0 -485 0 0 -320z"/>
<path d="M3010 4372 l0 -492 512 0 c428 0 510 2 498 13 -33 30 -832 797 -917
881 l-93 91 0 -493z"/>
<path d="M152 2403 l3 -2248 1810 0 1810 0 3 82 3 83 -1686 2 -1687 3 -19 24
c-19 23 -19 71 -19 2162 l0 2139 -110 0 -110 0 2 -2247z"/>
<path d="M4582 3893 c-23 -15 -50 -45 -62 -68 -31 -61 -573 -1787 -563 -1795
13 -12 443 -148 447 -141 15 25 566 1803 566 1826 0 43 -37 112 -73 134 -45
27 -191 71 -236 71 -23 0 -52 -10 -79 -27z"/>
<path d="M3927 1723 c10 -420 15 -496 29 -482 18 19 363 503 360 506 -4 4
-378 123 -386 123 -4 0 -5 -66 -3 -147z"/>
</g>
</svg>
