<?xml version="1.0" standalone="no"?>
<!DOCTYPE svg PUBLIC "-//W3C//DTD SVG 20010904//EN"
 "http://www.w3.org/TR/2001/REC-SVG-20010904/DTD/svg10.dtd">
<svg version="1.0" xmlns="http://www.w3.org/2000/svg"
 width="512.000000pt" height="512.000000pt" viewBox="0 0 512.000000 512.000000"
 preserveAspectRatio="xMidYMid meet">

<g transform="translate(0.000000,512.000000) scale(0.100000,-0.100000)"
fill="#000000" stroke="none">
<path d="M2 3548 c1 -865 3 -1555 5 -1533 15 165 140 322 300 376 21 7 78 18
127 23 l89 11 23 72 c30 91 98 238 154 328 48 79 147 211 179 239 21 19 21 25
21 360 0 188 5 359 10 380 11 50 56 95 105 106 49 11 209 -5 305 -31 149 -40
327 -140 443 -248 l47 -44 93 13 c50 7 216 16 367 20 151 4 254 7 229 8 -72 3
-216 49 -299 95 -100 56 -221 177 -277 277 -128 229 -128 511 0 740 54 96 169
214 264 269 84 50 200 89 293 101 36 4 -508 8 -1207 9 l-1273 1 2 -1572z"/>
<path d="M2660 5110 c93 -12 209 -51 293 -101 95 -55 210 -173 264 -269 128
-229 128 -511 0 -740 -54 -96 -169 -214 -264 -269 -85 -50 -202 -90 -293 -100
-50 -5 -14 -8 155 -14 121 -4 260 -14 308 -22 546 -90 995 -426 1232 -920 70
-147 122 -315 139 -450 15 -111 12 -108 65 -103 93 9 185 75 232 168 28 54 37
160 19 217 -13 37 -22 53 -83 141 -54 77 -41 160 32 209 40 27 107 31 151 8
56 -29 146 -163 180 -270 7 -22 16 -65 20 -95 4 -30 8 547 9 1283 l1 1337
-1262 -1 c-695 -1 -1234 -5 -1198 -9z"/>
<path d="M2422 4796 c-144 -54 -235 -148 -283 -293 -28 -84 -23 -210 10 -295
45 -116 142 -213 259 -260 82 -33 242 -33 324 0 116 47 213 144 260 260 33 82
33 242 0 324 -47 117 -144 214 -260 259 -87 35 -226 37 -310 5z"/>
<path d="M1200 3322 c0 -169 -4 -302 -11 -325 -6 -23 -37 -67 -80 -115 -153
-168 -265 -376 -318 -590 -37 -150 -57 -163 -256 -171 -155 -7 -179 -15 -215
-74 -18 -29 -20 -51 -20 -232 0 -182 2 -203 20 -233 38 -62 60 -68 266 -75
228 -8 232 -9 295 -136 91 -180 216 -343 352 -458 115 -97 111 -86 115 -371
l3 -242 149 0 148 0 4 249 c3 234 4 251 24 277 37 50 68 66 124 66 56 0 87
-16 123 -64 14 -19 21 -50 26 -124 l6 -99 456 -3 456 -2 5 101 c4 79 9 106 25
126 36 49 67 65 123 65 56 0 87 -16 124 -66 20 -26 21 -43 24 -277 l4 -249
149 0 149 0 0 173 c0 175 9 237 38 271 10 10 55 43 100 73 106 70 255 212 338
322 109 145 207 363 250 557 22 99 30 346 15 452 -77 536 -458 976 -971 1121
-178 50 -229 53 -785 49 -448 -3 -522 -6 -610 -23 -61 -11 -111 -16 -130 -11
-17 4 -67 44 -120 95 -128 125 -210 176 -342 215 l-53 15 0 -287z m2046 -328
c50 -37 66 -68 66 -124 0 -56 -16 -87 -66 -124 -27 -21 -40 -21 -629 -24 -331
-2 -626 0 -656 3 -95 12 -151 90 -131 182 11 45 57 92 101 103 19 5 316 8 661
7 616 -2 627 -2 654 -23z m-1967 -603 c45 -31 63 -66 64 -118 1 -60 -23 -104
-73 -132 -60 -34 -119 -24 -173 27 -58 55 -56 143 4 203 51 51 123 59 178 20z"/>
<path d="M5110 2352 c0 -102 -75 -257 -170 -352 -97 -97 -212 -153 -349 -170
-41 -6 -76 -12 -78 -14 -2 -2 -10 -44 -18 -92 -68 -451 -307 -849 -667 -1113
l-58 -42 0 -207 c0 -114 -5 -225 -10 -246 -11 -48 -56 -95 -101 -106 -19 -4
302 -8 714 -9 l747 -1 0 1195 c0 657 -2 1195 -5 1195 -3 0 -5 -17 -5 -38z"/>
<path d="M2 828 l-2 -828 598 1 c328 1 582 5 563 9 -45 11 -90 58 -101 106 -5
21 -10 156 -10 300 l0 261 -104 106 c-109 110 -195 224 -268 351 l-43 76 -80
0 c-141 1 -219 15 -297 52 -139 67 -237 205 -251 353 -2 22 -4 -332 -5 -787z"/>
<path d="M1950 234 c0 -43 -5 -97 -10 -118 -11 -48 -56 -95 -101 -106 -19 -4
238 -8 571 -8 333 0 590 4 571 8 -45 11 -90 58 -101 106 -5 21 -10 72 -10 112
l0 72 -353 0 c-195 0 -402 3 -460 7 l-107 6 0 -79z"/>
</g>
</svg>
